<svg xmlns="http://www.w3.org/2000/svg" version="1.1" xmlns:xlink="http://www.w3.org/1999/xlink" xmlns:svgjs="http://svgjs.com/svgjs" width="1440" height="1980" preserveAspectRatio="none" viewBox="0 0 1440 1980"><g mask="url(&quot;#SvgjsMask1043&quot;)" fill="none"><path d="M129.7075676860903 1662.824325600839L380.7199618082418 1684.7850644910286 402.6807006984312 1433.772670368877 151.66830657627975 1411.8119314786877z" fill="rgba(28, 83, 142, 0.4)" class="triangle-float2"></path><path d="M1334.442499276702 1150.015824504814L1112.5379532593086 1060.3605682817426 1244.7872430536306 1371.9203705222073z" fill="rgba(28, 83, 142, 0.4)" class="triangle-float3"></path><path d="M628.551,625.72C751.206,616.705,858.943,552.705,923.318,447.913C991.253,337.326,1016.717,203.122,959.819,86.472C895.483,-45.427,775.123,-149.13,628.551,-156.407C469.883,-164.284,314.884,-86.804,234.95,50.484C154.549,188.575,157.552,365.688,247.787,497.564C328.84,616.02,485.405,636.241,628.551,625.72" fill="rgba(28, 83, 142, 0.4)" class="triangle-float1"></path><path d="M449.6391141695699 1245.4078956475983L269.32720256993593 987.8957985047209 192.1270170266925 1425.7198072472322z" fill="rgba(28, 83, 142, 0.4)" class="triangle-float2"></path><path d="M1256.653,2358.486C1394.473,2348.562,1466.923,2210.329,1535.281,2090.245C1602.55,1972.074,1682.332,1840.416,1620.507,1719.308C1554.931,1590.853,1400.616,1535.76,1256.653,1544.445C1126.555,1552.294,1029.124,1647.55,961.646,1759.057C890.94,1875.898,838.32,2013.554,898.624,2136.088C965.116,2271.193,1106.461,2369.301,1256.653,2358.486" fill="rgba(28, 83, 142, 0.4)" class="triangle-float3"></path><path d="M35.77903385366862 192.1786342095159L311.4789035428854 81.09417692233015 109.55121320065143-82.42364257675666z" fill="rgba(28, 83, 142, 0.4)" class="triangle-float3"></path><path d="M1062.966,1181.654C1165.047,1179.329,1239.962,1098.676,1292.166,1010.923C1345.94,920.531,1389.234,811.666,1337.574,720.049C1285.291,627.326,1169.262,598.755,1062.966,604.441C967.035,609.573,884.009,664.353,834.93,746.938C784.631,831.576,769.202,934.605,814.938,1021.793C863.91,1115.151,957.57,1184.055,1062.966,1181.654" fill="rgba(28, 83, 142, 0.4)" class="triangle-float3"></path><path d="M957.8041289562123 1447.9952335139833L872.2510506636185 1212.9400827402487 637.1958998898839 1298.4931610328424 722.7489781824777 1533.548311806577z" fill="rgba(28, 83, 142, 0.4)" class="triangle-float3"></path></g><defs><mask id="SvgjsMask1043"><rect width="1440" height="1980" fill="#ffffff"></rect></mask><style>
            @keyframes float1 {
                0%{transform: translate(0, 0)}
                50%{transform: translate(-10px, 0)}
                100%{transform: translate(0, 0)}
            }

            .triangle-float1 {
                animation: float1 5s infinite;
            }

            @keyframes float2 {
                0%{transform: translate(0, 0)}
                50%{transform: translate(-5px, -5px)}
                100%{transform: translate(0, 0)}
            }

            .triangle-float2 {
                animation: float2 4s infinite;
            }

            @keyframes float3 {
                0%{transform: translate(0, 0)}
                50%{transform: translate(0, -10px)}
                100%{transform: translate(0, 0)}
            }

            .triangle-float3 {
                animation: float3 6s infinite;
            }
        </style></defs></svg>